<svg id="my-svg" width="100%" xmlns="http://www.w3.org/2000/svg" xmlns:xlink="http://www.w3.org/1999/xlink" class="statediagram" style="max-width: 1041.73px; background-color: white;" viewBox="0 0 1041.73046875 1094" role="graphics-document document" aria-roledescription="stateDiagram"><style>#my-svg{font-family:"trebuchet ms",verdana,arial,sans-serif;font-size:16px;fill:#333;}@keyframes edge-animation-frame{from{stroke-dashoffset:0;}}@keyframes dash{to{stroke-dashoffset:0;}}#my-svg .edge-animation-slow{stroke-dasharray:9,5!important;stroke-dashoffset:900;animation:dash 50s linear infinite;stroke-linecap:round;}#my-svg .edge-animation-fast{stroke-dasharray:9,5!important;stroke-dashoffset:900;animation:dash 20s linear infinite;stroke-linecap:round;}#my-svg .error-icon{fill:#552222;}#my-svg .error-text{fill:#552222;stroke:#552222;}#my-svg .edge-thickness-normal{stroke-width:1px;}#my-svg .edge-thickness-thick{stroke-width:3.5px;}#my-svg .edge-pattern-solid{stroke-dasharray:0;}#my-svg .edge-thickness-invisible{stroke-width:0;fill:none;}#my-svg .edge-pattern-dashed{stroke-dasharray:3;}#my-svg .edge-pattern-dotted{stroke-dasharray:2;}#my-svg .marker{fill:#333333;stroke:#333333;}#my-svg .marker.cross{stroke:#333333;}#my-svg svg{font-family:"trebuchet ms",verdana,arial,sans-serif;font-size:16px;}#my-svg p{margin:0;}#my-svg defs [id$="-barbEnd"]{fill:#333333;stroke:#333333;}#my-svg g.stateGroup text{fill:#9370DB;stroke:none;font-size:10px;}#my-svg g.stateGroup text{fill:#333;stroke:none;font-size:10px;}#my-svg g.stateGroup .state-title{font-weight:bolder;fill:#131300;}#my-svg g.stateGroup rect{fill:#ECECFF;stroke:#9370DB;}#my-svg g.stateGroup line{stroke:#333333;stroke-width:1;}#my-svg .transition{stroke:#333333;stroke-width:1;fill:none;}#my-svg .stateGroup .composit{fill:white;border-bottom:1px;}#my-svg .stateGroup .alt-composit{fill:#e0e0e0;border-bottom:1px;}#my-svg .state-note{stroke:#aaaa33;fill:#fff5ad;}#my-svg .state-note text{fill:black;stroke:none;font-size:10px;}#my-svg .stateLabel .box{stroke:none;stroke-width:0;fill:#ECECFF;opacity:0.5;}#my-svg .edgeLabel .label rect{fill:#ECECFF;opacity:0.5;}#my-svg .edgeLabel{background-color:rgba(232,232,232, 0.8);text-align:center;}#my-svg .edgeLabel p{background-color:rgba(232,232,232, 0.8);}#my-svg .edgeLabel rect{opacity:0.5;background-color:rgba(232,232,232, 0.8);fill:rgba(232,232,232, 0.8);}#my-svg .edgeLabel .label text{fill:#333;}#my-svg .label div .edgeLabel{color:#333;}#my-svg .stateLabel text{fill:#131300;font-size:10px;font-weight:bold;}#my-svg .node circle.state-start{fill:#333333;stroke:#333333;}#my-svg .node .fork-join{fill:#333333;stroke:#333333;}#my-svg .node circle.state-end{fill:#9370DB;stroke:white;stroke-width:1.5;}#my-svg .end-state-inner{fill:white;stroke-width:1.5;}#my-svg .node rect{fill:#ECECFF;stroke:#9370DB;stroke-width:1px;}#my-svg .node polygon{fill:#ECECFF;stroke:#9370DB;stroke-width:1px;}#my-svg [id$="-barbEnd"]{fill:#333333;}#my-svg .statediagram-cluster rect{fill:#ECECFF;stroke:#9370DB;stroke-width:1px;}#my-svg .cluster-label,#my-svg .nodeLabel{color:#131300;}#my-svg .statediagram-cluster rect.outer{rx:5px;ry:5px;}#my-svg .statediagram-state .divider{stroke:#9370DB;}#my-svg .statediagram-state .title-state{rx:5px;ry:5px;}#my-svg .statediagram-cluster.statediagram-cluster .inner{fill:white;}#my-svg .statediagram-cluster.statediagram-cluster-alt .inner{fill:#f0f0f0;}#my-svg .statediagram-cluster .inner{rx:0;ry:0;}#my-svg .statediagram-state rect.basic{rx:5px;ry:5px;}#my-svg .statediagram-state rect.divider{stroke-dasharray:10,10;fill:#f0f0f0;}#my-svg .note-edge{stroke-dasharray:5;}#my-svg .statediagram-note rect{fill:#fff5ad;stroke:#aaaa33;stroke-width:1px;rx:0;ry:0;}#my-svg .statediagram-note rect{fill:#fff5ad;stroke:#aaaa33;stroke-width:1px;rx:0;ry:0;}#my-svg .statediagram-note text{fill:black;}#my-svg .statediagram-note .nodeLabel{color:black;}#my-svg .statediagram .edgeLabel{color:red;}#my-svg [id$="-dependencyStart"],#my-svg [id$="-dependencyEnd"]{fill:#333333;stroke:#333333;stroke-width:1;}#my-svg .statediagramTitleText{text-anchor:middle;font-size:18px;fill:#333;}#my-svg [data-look="neo"].statediagram-cluster rect{fill:#ECECFF;stroke:#9370DB;stroke-width:1;}#my-svg [data-look="neo"].statediagram-cluster rect.outer{rx:5px;ry:5px;filter:drop-shadow(1px 2px 2px rgba(185, 185, 185, 1));}#my-svg .node .neo-node{stroke:#9370DB;}#my-svg [data-look="neo"].node rect,#my-svg [data-look="neo"].cluster rect,#my-svg [data-look="neo"].node polygon{stroke:#9370DB;filter:drop-shadow(1px 2px 2px rgba(185, 185, 185, 1));}#my-svg [data-look="neo"].node path{stroke:#9370DB;stroke-width:1px;}#my-svg [data-look="neo"].node .outer-path{filter:drop-shadow(1px 2px 2px rgba(185, 185, 185, 1));}#my-svg [data-look="neo"].node .neo-line path{stroke:#9370DB;filter:none;}#my-svg [data-look="neo"].node circle{stroke:#9370DB;filter:drop-shadow(1px 2px 2px rgba(185, 185, 185, 1));}#my-svg [data-look="neo"].node circle .state-start{fill:#000000;}#my-svg [data-look="neo"].icon-shape .icon{fill:#9370DB;filter:drop-shadow(1px 2px 2px rgba(185, 185, 185, 1));}#my-svg [data-look="neo"].icon-shape .icon-neo path{stroke:#9370DB;filter:drop-shadow(1px 2px 2px rgba(185, 185, 185, 1));}#my-svg :root{--mermaid-font-family:"trebuchet ms",verdana,arial,sans-serif;}</style><g><defs><marker id="my-svg_stateDiagram-barbEnd" refX="19" refY="7" markerWidth="20" markerHeight="14" markerUnits="userSpaceOnUse" orient="auto"><path d="M 19,7 L9,13 L14,7 L9,1 Z"/></marker></defs><g class="root"><g class="clusters"><g class="note-cluster" id="my-svg-state-Created----parent-12"><rect x="52.66796875" y="212" width="241.90625" height="128" fill="none"/></g><g class="note-cluster" id="my-svg-state-AwaitingApproval----parent-13"><rect x="8" y="642" width="289.28125" height="128" fill="none"/></g><g class="note-cluster" id="my-svg-state-ExecutingAction----parent-14"><rect x="831.08984375" y="958" width="202.640625" height="128" fill="none"/></g></g><g class="edgePaths"><path d="M449.469,31.245L419.714,38.204C389.96,45.163,330.451,59.082,300.696,70.208C270.941,81.333,270.941,89.667,270.941,93.833L270.941,98" id="my-svg-edge0" class="edge-thickness-normal edge-pattern-solid transition" style="fill:none;;;fill:none" data-edge="true" data-et="edge" data-id="edge0" data-points="W3sieCI6NDQ5LjQ2ODc1LCJ5IjozMS4yNDUxNTI3NzYzNjc4OH0seyJ4IjoyNzAuOTQxNDA2MjUsInkiOjczfSx7IngiOjI3MC45NDE0MDYyNSwieSI6OTh9XQ==" data-look="classic" marker-end="url(#my-svg_stateDiagram-barbEnd)"/><path d="M307.395,130.193L329.72,137.661C352.046,145.129,396.697,160.064,419.022,173.699C441.348,187.333,441.348,199.667,441.348,213.167C441.348,226.667,441.348,241.333,441.348,248.667L441.348,256" id="my-svg-edge1" class="edge-thickness-normal edge-pattern-solid transition" style="fill:none;;;fill:none" data-edge="true" data-et="edge" data-id="edge1" data-points="W3sieCI6MzA3LjM5NDUzMTI1LCJ5IjoxMzAuMTkzMzc5NzkwOTQwNzV9LHsieCI6NDQxLjM0NzY1NjI1LCJ5IjoxNzV9LHsieCI6NDQxLjM0NzY1NjI1LCJ5IjoyMTJ9LHsieCI6NDQxLjM0NzY1NjI1LCJ5IjoyNTZ9XQ==" data-look="classic" marker-end="url(#my-svg_stateDiagram-barbEnd)"/><path d="M441.348,296L441.348,303.333C441.348,310.667,441.348,325.333,441.348,338.833C441.348,352.333,441.348,364.667,441.348,377C441.348,389.333,441.348,401.667,441.348,407.833L441.348,414" id="my-svg-edge2" class="edge-thickness-normal edge-pattern-solid transition" style="fill:none;;;fill:none" data-edge="true" data-et="edge" data-id="edge2" data-points="W3sieCI6NDQxLjM0NzY1NjI1LCJ5IjoyOTZ9LHsieCI6NDQxLjM0NzY1NjI1LCJ5IjozNDB9LHsieCI6NDQxLjM0NzY1NjI1LCJ5IjozNzd9LHsieCI6NDQxLjM0NzY1NjI1LCJ5Ijo0MTR9XQ==" data-look="classic" marker-end="url(#my-svg_stateDiagram-barbEnd)"/><path d="M448.405,454L450.581,460.167C452.757,466.333,457.109,478.667,459.285,491C461.461,503.333,461.461,515.667,461.461,521.833L461.461,528" id="my-svg-edge3" class="edge-thickness-normal edge-pattern-solid transition" style="fill:none;;;fill:none" data-edge="true" data-et="edge" data-id="edge3" data-points="W3sieCI6NDQ4LjQwNDk0NzkxNjY2NjcsInkiOjQ1NH0seyJ4Ijo0NjEuNDYwOTM3NSwieSI6NDkxfSx7IngiOjQ2MS40NjA5Mzc1LCJ5Ijo1Mjh9XQ==" data-look="classic" marker-end="url(#my-svg_stateDiagram-barbEnd)"/><path d="M410.318,454L400.751,460.167C391.184,466.333,372.049,478.667,362.481,494.333C352.914,510,352.914,529,352.914,548C352.914,567,352.914,586,352.914,601.667C352.914,617.333,352.914,629.667,352.914,646.5C352.914,663.333,352.914,684.667,352.914,706C352.914,727.333,352.914,748.667,352.914,765.5C352.914,782.333,352.914,794.667,352.914,810.333C352.914,826,352.914,845,352.914,864C352.914,883,352.914,902,352.914,917.667C352.914,933.333,352.914,945.667,389.437,961.159C425.96,976.652,499.005,995.304,535.528,1004.63L572.051,1013.956" id="my-svg-edge4" class="edge-thickness-normal edge-pattern-solid transition" style="fill:none;;;fill:none" data-edge="true" data-et="edge" data-id="edge4" data-points="W3sieCI6NDEwLjMxODMyNTEwOTY0OTEsInkiOjQ1NH0seyJ4IjozNTIuOTE0MDYyNSwieSI6NDkxfSx7IngiOjM1Mi45MTQwNjI1LCJ5Ijo1NDh9LHsieCI6MzUyLjkxNDA2MjUsInkiOjYwNX0seyJ4IjozNTIuOTE0MDYyNSwieSI6NjQyfSx7IngiOjM1Mi45MTQwNjI1LCJ5Ijo3MDZ9LHsieCI6MzUyLjkxNDA2MjUsInkiOjc3MH0seyJ4IjozNTIuOTE0MDYyNSwieSI6ODA3fSx7IngiOjM1Mi45MTQwNjI1LCJ5Ijo4NjR9LHsieCI6MzUyLjkxNDA2MjUsInkiOjkyMX0seyJ4IjozNTIuOTE0MDYyNSwieSI6OTU4fSx7IngiOjU3Mi4wNTA3ODEyNSwieSI6MTAxMy45NTY0ODU4MjUxNjR9XQ==" data-look="classic" marker-end="url(#my-svg_stateDiagram-barbEnd)"/><path d="M531.609,564.058L561.419,570.882C591.228,577.705,650.846,591.353,680.656,604.343C710.465,617.333,710.465,629.667,710.465,643.167C710.465,656.667,710.465,671.333,710.465,678.667L710.465,686" id="my-svg-edge5" class="edge-thickness-normal edge-pattern-solid transition" style="fill:none;;;fill:none" data-edge="true" data-et="edge" data-id="edge5" data-points="W3sieCI6NTMxLjYwOTM3NSwieSI6NTY0LjA1NzgyNDE0MzA3MDF9LHsieCI6NzEwLjQ2NDg0Mzc1LCJ5Ijo2MDV9LHsieCI6NzEwLjQ2NDg0Mzc1LCJ5Ijo2NDJ9LHsieCI6NzEwLjQ2NDg0Mzc1LCJ5Ijo2ODZ9XQ==" data-look="classic" marker-end="url(#my-svg_stateDiagram-barbEnd)"/><path d="M461.461,568L461.461,574.167C461.461,580.333,461.461,592.667,461.461,605C461.461,617.333,461.461,629.667,467.272,643.167C473.082,656.667,484.703,671.333,490.514,678.667L496.325,686" id="my-svg-edge6" class="edge-thickness-normal edge-pattern-solid transition" style="fill:none;;;fill:none" data-edge="true" data-et="edge" data-id="edge6" data-points="W3sieCI6NDYxLjQ2MDkzNzUsInkiOjU2OH0seyJ4Ijo0NjEuNDYwOTM3NSwieSI6NjA1fSx7IngiOjQ2MS40NjA5Mzc1LCJ5Ijo2NDJ9LHsieCI6NDk2LjMyNDcwNzAzMTI1LCJ5Ijo2ODZ9XQ==" data-look="classic" marker-end="url(#my-svg_stateDiagram-barbEnd)"/><path d="M542.55,686L553.689,678.667C564.828,671.333,587.105,656.667,598.244,643.167C609.383,629.667,609.383,617.333,609.383,601.667C609.383,586,609.383,567,609.383,548C609.383,529,609.383,510,590.316,494.032C571.249,478.064,533.115,465.129,514.048,458.661L494.98,452.193" id="my-svg-edge7" class="edge-thickness-normal edge-pattern-solid transition" style="fill:none;;;fill:none" data-edge="true" data-et="edge" data-id="edge7" data-points="W3sieCI6NTQyLjU1MDI5Mjk2ODc1LCJ5Ijo2ODZ9LHsieCI6NjA5LjM4MjgxMjUsInkiOjY0Mn0seyJ4Ijo2MDkuMzgyODEyNSwieSI6NjA1fSx7IngiOjYwOS4zODI4MTI1LCJ5Ijo1NDh9LHsieCI6NjA5LjM4MjgxMjUsInkiOjQ5MX0seyJ4Ijo0OTQuOTgwNDY4NzUsInkiOjQ1Mi4xOTMwMzk5NjA5NDU2N31d" data-look="classic" marker-end="url(#my-svg_stateDiagram-barbEnd)"/><path d="M512.172,726L512.172,733.333C512.172,740.667,512.172,755.333,512.172,768.833C512.172,782.333,512.172,794.667,512.172,810.333C512.172,826,512.172,845,512.172,864C512.172,883,512.172,902,512.172,917.667C512.172,933.333,512.172,945.667,522.642,959.167C533.113,972.667,554.054,987.333,564.524,994.667L574.995,1002" id="my-svg-edge8" class="edge-thickness-normal edge-pattern-solid transition" style="fill:none;;;fill:none" data-edge="true" data-et="edge" data-id="edge8" data-points="W3sieCI6NTEyLjE3MTg3NSwieSI6NzI2fSx7IngiOjUxMi4xNzE4NzUsInkiOjc3MH0seyJ4Ijo1MTIuMTcxODc1LCJ5Ijo4MDd9LHsieCI6NTEyLjE3MTg3NSwieSI6ODY0fSx7IngiOjUxMi4xNzE4NzUsInkiOjkyMX0seyJ4Ijo1MTIuMTcxODc1LCJ5Ijo5NTh9LHsieCI6NTc0Ljk5NDg3MzA0Njg3NSwieSI6MTAwMn1d" data-look="classic" marker-end="url(#my-svg_stateDiagram-barbEnd)"/><path d="M710.465,726L710.465,733.333C710.465,740.667,710.465,755.333,710.465,768.833C710.465,782.333,710.465,794.667,710.465,807C710.465,819.333,710.465,831.667,710.465,837.833L710.465,844" id="my-svg-edge9" class="edge-thickness-normal edge-pattern-solid transition" style="fill:none;;;fill:none" data-edge="true" data-et="edge" data-id="edge9" data-points="W3sieCI6NzEwLjQ2NDg0Mzc1LCJ5Ijo3MjZ9LHsieCI6NzEwLjQ2NDg0Mzc1LCJ5Ijo3NzB9LHsieCI6NzEwLjQ2NDg0Mzc1LCJ5Ijo4MDd9LHsieCI6NzEwLjQ2NDg0Mzc1LCJ5Ijo4NDR9XQ==" data-look="classic" marker-end="url(#my-svg_stateDiagram-barbEnd)"/><path d="M710.465,884L710.465,890.167C710.465,896.333,710.465,908.667,710.465,921C710.465,933.333,710.465,945.667,697.896,959.357C685.327,973.048,660.189,988.096,647.62,995.62L635.051,1003.144" id="my-svg-edge10" class="edge-thickness-normal edge-pattern-solid transition" style="fill:none;;;fill:none" data-edge="true" data-et="edge" data-id="edge10" data-points="W3sieCI6NzEwLjQ2NDg0Mzc1LCJ5Ijo4ODR9LHsieCI6NzEwLjQ2NDg0Mzc1LCJ5Ijo5MjF9LHsieCI6NzEwLjQ2NDg0Mzc1LCJ5Ijo5NTh9LHsieCI6NjM1LjA1MDc4MTI1LCJ5IjoxMDAzLjE0MzczNDAxNTM0NTJ9XQ==" data-look="classic" marker-end="url(#my-svg_stateDiagram-barbEnd)"/><path d="M635.051,1012.286L664.391,1003.238C693.73,994.191,752.41,976.095,781.75,960.881C811.09,945.667,811.09,933.333,811.09,917.667C811.09,902,811.09,883,811.09,864C811.09,845,811.09,826,811.09,810.333C811.09,794.667,811.09,782.333,811.09,765.5C811.09,748.667,811.09,727.333,811.09,706C811.09,684.667,811.09,663.333,811.09,646.5C811.09,629.667,811.09,617.333,811.09,601.667C811.09,586,811.09,567,811.09,548C811.09,529,811.09,510,811.09,491C811.09,472,811.09,453,811.09,434C811.09,415,811.09,396,811.09,380.333C811.09,364.667,811.09,352.333,811.09,335.5C811.09,318.667,811.09,297.333,811.09,276C811.09,254.667,811.09,233.333,811.09,216.5C811.09,199.667,811.09,187.333,811.09,171.667C811.09,156,811.09,137,811.09,120C811.09,103,811.09,88,755.445,73.299C699.799,58.598,588.509,44.197,532.864,36.996L477.219,29.795" id="my-svg-edge11" class="edge-thickness-normal edge-pattern-solid transition" style="fill:none;;;fill:none" data-edge="true" data-et="edge" data-id="edge11" data-points="W3sieCI6NjM1LjA1MDc4MTI1LCJ5IjoxMDEyLjI4NjE2NjAwNzkwNTJ9LHsieCI6ODExLjA4OTg0Mzc1LCJ5Ijo5NTh9LHsieCI6ODExLjA4OTg0Mzc1LCJ5Ijo5MjF9LHsieCI6ODExLjA4OTg0Mzc1LCJ5Ijo4NjR9LHsieCI6ODExLjA4OTg0Mzc1LCJ5Ijo4MDd9LHsieCI6ODExLjA4OTg0Mzc1LCJ5Ijo3NzB9LHsieCI6ODExLjA4OTg0Mzc1LCJ5Ijo3MDZ9LHsieCI6ODExLjA4OTg0Mzc1LCJ5Ijo2NDJ9LHsieCI6ODExLjA4OTg0Mzc1LCJ5Ijo2MDV9LHsieCI6ODExLjA4OTg0Mzc1LCJ5Ijo1NDh9LHsieCI6ODExLjA4OTg0Mzc1LCJ5Ijo0OTF9LHsieCI6ODExLjA4OTg0Mzc1LCJ5Ijo0MzR9LHsieCI6ODExLjA4OTg0Mzc1LCJ5IjozNzd9LHsieCI6ODExLjA4OTg0Mzc1LCJ5IjozNDB9LHsieCI6ODExLjA4OTg0Mzc1LCJ5IjoyNzZ9LHsieCI6ODExLjA4OTg0Mzc1LCJ5IjoyMTJ9LHsieCI6ODExLjA4OTg0Mzc1LCJ5IjoxNzV9LHsieCI6ODExLjA4OTg0Mzc1LCJ5IjoxMTh9LHsieCI6ODExLjA4OTg0Mzc1LCJ5Ijo3M30seyJ4Ijo0NzcuMjE4NzUsInkiOjI5Ljc5NTQ5MTA1Mjg3Mzk3N31d" data-look="classic" marker-end="url(#my-svg_stateDiagram-barbEnd)"/><path d="M236.794,138L226.265,144.167C215.736,150.333,194.679,162.667,184.15,175C173.621,187.333,173.621,199.667,173.621,210C173.621,220.333,173.621,228.667,173.621,232.833L173.621,237" id="my-svg-Created-Created----note-12" class="edge-thickness-normal edge-pattern-solid transition note-edge" style="fill:none;;;fill:none" data-edge="true" data-et="edge" data-id="Created-Created----note-12" data-points="W3sieCI6MjM2Ljc5MzkyODE3OTgyNDU1LCJ5IjoxMzh9LHsieCI6MTczLjYyMTA5Mzc1LCJ5IjoxNzV9LHsieCI6MTczLjYyMTA5Mzc1LCJ5IjoyMTJ9LHsieCI6MTczLjYyMTA5Mzc1LCJ5IjoyMzd9XQ==" data-look="classic"/><path d="M391.313,560.948L351.534,568.29C311.755,575.632,232.198,590.316,192.419,603.825C152.641,617.333,152.641,629.667,152.641,640C152.641,650.333,152.641,658.667,152.641,662.833L152.641,667" id="my-svg-AwaitingApproval-AwaitingApproval----note-13" class="edge-thickness-normal edge-pattern-solid transition note-edge" style="fill:none;;;fill:none" data-edge="true" data-et="edge" data-id="AwaitingApproval-AwaitingApproval----note-13" data-points="W3sieCI6MzkxLjMxMjUsInkiOjU2MC45NDc1MzIxOTE1NTU1fSx7IngiOjE1Mi42NDA2MjUsInkiOjYwNX0seyJ4IjoxNTIuNjQwNjI1LCJ5Ijo2NDJ9LHsieCI6MTUyLjY0MDYyNSwieSI6NjY3fV0=" data-look="classic"/><path d="M776.09,880.854L802.143,887.545C828.197,894.236,880.303,907.618,906.357,920.476C932.41,933.333,932.41,945.667,932.41,956C932.41,966.333,932.41,974.667,932.41,978.833L932.41,983" id="my-svg-ExecutingAction-ExecutingAction----note-14" class="edge-thickness-normal edge-pattern-solid transition note-edge" style="fill:none;;;fill:none" data-edge="true" data-et="edge" data-id="ExecutingAction-ExecutingAction----note-14" data-points="W3sieCI6Nzc2LjA4OTg0Mzc1LCJ5Ijo4ODAuODUzODEzOTMyMjA0Nn0seyJ4Ijo5MzIuNDEwMTU2MjUsInkiOjkyMX0seyJ4Ijo5MzIuNDEwMTU2MjUsInkiOjk1OH0seyJ4Ijo5MzIuNDEwMTU2MjUsInkiOjk4M31d" data-look="classic"/></g><g class="edgeLabels"><g class="edgeLabel"><g class="label" data-id="edge0" transform="translate(0, 0)"><foreignObject width="0" height="0"><div xmlns="http://www.w3.org/1999/xhtml" class="labelBkg" style="display: table-cell; white-space: nowrap; line-height: 1.5; max-width: 200px; text-align: center;"><span class="edgeLabel"></span></div></foreignObject></g></g><g class="edgeLabel" transform="translate(441.34765625, 175)"><g class="label" data-id="edge1" transform="translate(-38.453125, -12)"><foreignObject width="76.90625" height="24"><div xmlns="http://www.w3.org/1999/xhtml" class="labelBkg" style="display: table-cell; white-space: nowrap; line-height: 1.5; max-width: 200px; text-align: center;"><span class="edgeLabel"><p>AssignCase</p></span></div></foreignObject></g></g><g class="edgeLabel" transform="translate(441.34765625, 377)"><g class="label" data-id="edge2" transform="translate(-63.4140625, -12)"><foreignObject width="126.828125" height="24"><div xmlns="http://www.w3.org/1999/xhtml" class="labelBkg" style="display: table-cell; white-space: nowrap; line-height: 1.5; max-width: 200px; text-align: center;"><span class="edgeLabel"><p>StartInvestigation</p></span></div></foreignObject></g></g><g class="edgeLabel" transform="translate(461.4609375, 491)"><g class="label" data-id="edge3" transform="translate(-86.515625, -12)"><foreignObject width="173.03125" height="24"><div xmlns="http://www.w3.org/1999/xhtml" class="labelBkg" style="display: table-cell; white-space: nowrap; line-height: 1.5; max-width: 200px; text-align: center;"><span class="edgeLabel"><p>SubmitRecommendation</p></span></div></foreignObject></g></g><g class="edgeLabel" transform="translate(352.9140625, 706)"><g class="label" data-id="edge4" transform="translate(-35.6328125, -12)"><foreignObject width="71.265625" height="24"><div xmlns="http://www.w3.org/1999/xhtml" class="labelBkg" style="display: table-cell; white-space: nowrap; line-height: 1.5; max-width: 200px; text-align: center;"><span class="edgeLabel"><p>CloseCase</p></span></div></foreignObject></g></g><g class="edgeLabel" transform="translate(710.46484375, 605)"><g class="label" data-id="edge5" transform="translate(-45.90625, -12)"><foreignObject width="91.8125" height="24"><div xmlns="http://www.w3.org/1999/xhtml" class="labelBkg" style="display: table-cell; white-space: nowrap; line-height: 1.5; max-width: 200px; text-align: center;"><span class="edgeLabel"><p>ApproveCase</p></span></div></foreignObject></g></g><g class="edgeLabel" transform="translate(461.4609375, 605)"><g class="label" data-id="edge6" transform="translate(-39.71875, -12)"><foreignObject width="79.4375" height="24"><div xmlns="http://www.w3.org/1999/xhtml" class="labelBkg" style="display: table-cell; white-space: nowrap; line-height: 1.5; max-width: 200px; text-align: center;"><span class="edgeLabel"><p>RejectCase</p></span></div></foreignObject></g></g><g class="edgeLabel" transform="translate(609.3828125, 548)"><g class="label" data-id="edge7" transform="translate(-42.7734375, -12)"><foreignObject width="85.546875" height="24"><div xmlns="http://www.w3.org/1999/xhtml" class="labelBkg" style="display: table-cell; white-space: nowrap; line-height: 1.5; max-width: 200px; text-align: center;"><span class="edgeLabel"><p>ReopenCase</p></span></div></foreignObject></g></g><g class="edgeLabel" transform="translate(512.171875, 864)"><g class="label" data-id="edge8" transform="translate(-35.6328125, -12)"><foreignObject width="71.265625" height="24"><div xmlns="http://www.w3.org/1999/xhtml" class="labelBkg" style="display: table-cell; white-space: nowrap; line-height: 1.5; max-width: 200px; text-align: center;"><span class="edgeLabel"><p>CloseCase</p></span></div></foreignObject></g></g><g class="edgeLabel" transform="translate(710.46484375, 807)"><g class="label" data-id="edge9" transform="translate(-51.3203125, -12)"><foreignObject width="102.640625" height="24"><div xmlns="http://www.w3.org/1999/xhtml" class="labelBkg" style="display: table-cell; white-space: nowrap; line-height: 1.5; max-width: 200px; text-align: center;"><span class="edgeLabel"><p>ExecuteAction</p></span></div></foreignObject></g></g><g class="edgeLabel" transform="translate(710.46484375, 921)"><g class="label" data-id="edge10" transform="translate(-61.6875, -12)"><foreignObject width="123.375" height="24"><div xmlns="http://www.w3.org/1999/xhtml" class="labelBkg" style="display: table-cell; white-space: nowrap; line-height: 1.5; max-width: 200px; text-align: center;"><span class="edgeLabel"><p>ActionCompleted</p></span></div></foreignObject></g></g><g class="edgeLabel"><g class="label" data-id="edge11" transform="translate(0, 0)"><foreignObject width="0" height="0"><div xmlns="http://www.w3.org/1999/xhtml" class="labelBkg" style="display: table-cell; white-space: nowrap; line-height: 1.5; max-width: 200px; text-align: center;"><span class="edgeLabel"></span></div></foreignObject></g></g><g class="edgeLabel"><g class="label" data-id="Created-Created----note-12" transform="translate(0, 0)"><foreignObject width="0" height="0"><div xmlns="http://www.w3.org/1999/xhtml" class="labelBkg" style="display: table-cell; white-space: nowrap; line-height: 1.5; max-width: 200px; text-align: center;"><span class="edgeLabel"></span></div></foreignObject></g></g><g class="edgeLabel"><g class="label" data-id="AwaitingApproval-AwaitingApproval----note-13" transform="translate(0, 0)"><foreignObject width="0" height="0"><div xmlns="http://www.w3.org/1999/xhtml" class="labelBkg" style="display: table-cell; white-space: nowrap; line-height: 1.5; max-width: 200px; text-align: center;"><span class="edgeLabel"></span></div></foreignObject></g></g><g class="edgeLabel"><g class="label" data-id="ExecutingAction-ExecutingAction----note-14" transform="translate(0, 0)"><foreignObject width="0" height="0"><div xmlns="http://www.w3.org/1999/xhtml" class="labelBkg" style="display: table-cell; white-space: nowrap; line-height: 1.5; max-width: 200px; text-align: center;"><span class="edgeLabel"></span></div></foreignObject></g></g></g><g class="nodes"><g class="node  statediagram-state" id="my-svg-state-[]-11" data-look="classic" transform="translate(463.34375, 28)"><rect class="basic label-container" style="" rx="5" ry="5" x="-13.875" y="-20" width="27.75" height="40"/><g class="label" style="" transform="translate(-5.875, -12)"><rect/><foreignObject width="11.75" height="24"><div xmlns="http://www.w3.org/1999/xhtml" style="display: table-cell; white-space: nowrap; line-height: 1.5; max-width: 200px; text-align: center;"><span class="nodeLabel markdown-node-label"><p>[]</p></span></div></foreignObject></g></g><g class="node  statediagram-state" id="my-svg-state-Created-12" data-look="classic" transform="translate(270.94140625, 118)"><rect class="basic label-container" style="" rx="5" ry="5" x="-36.453125" y="-20" width="72.90625" height="40"/><g class="label" style="" transform="translate(-28.453125, -12)"><rect/><foreignObject width="56.90625" height="24"><div xmlns="http://www.w3.org/1999/xhtml" style="display: table-cell; white-space: nowrap; line-height: 1.5; max-width: 200px; text-align: center;"><span class="nodeLabel markdown-node-label"><p>Created</p></span></div></foreignObject></g></g><g class="node  statediagram-state" id="my-svg-state-Assigned-2" data-look="classic" transform="translate(441.34765625, 276)"><rect class="basic label-container" style="" rx="5" ry="5" x="-38.6875" y="-20" width="77.375" height="40"/><g class="label" style="" transform="translate(-30.6875, -12)"><rect/><foreignObject width="61.375" height="24"><div xmlns="http://www.w3.org/1999/xhtml" style="display: table-cell; white-space: nowrap; line-height: 1.5; max-width: 200px; text-align: center;"><span class="nodeLabel markdown-node-label"><p>Assigned</p></span></div></foreignObject></g></g><g class="node  statediagram-state" id="my-svg-state-Investigating-7" data-look="classic" transform="translate(441.34765625, 434)"><rect class="basic label-container" style="" rx="5" ry="5" x="-53.6328125" y="-20" width="107.265625" height="40"/><g class="label" style="" transform="translate(-45.6328125, -12)"><rect/><foreignObject width="91.265625" height="24"><div xmlns="http://www.w3.org/1999/xhtml" style="display: table-cell; white-space: nowrap; line-height: 1.5; max-width: 200px; text-align: center;"><span class="nodeLabel markdown-node-label"><p>Investigating</p></span></div></foreignObject></g></g><g class="node  statediagram-state" id="my-svg-state-AwaitingApproval-13" data-look="classic" transform="translate(461.4609375, 548)"><rect class="basic label-container" style="" rx="5" ry="5" x="-70.1484375" y="-20" width="140.296875" height="40"/><g class="label" style="" transform="translate(-62.1484375, -12)"><rect/><foreignObject width="124.296875" height="24"><div xmlns="http://www.w3.org/1999/xhtml" style="display: table-cell; white-space: nowrap; line-height: 1.5; max-width: 200px; text-align: center;"><span class="nodeLabel markdown-node-label"><p>AwaitingApproval</p></span></div></foreignObject></g></g><g class="node  statediagram-state" id="my-svg-state-Closed-11" data-look="classic" transform="translate(603.55078125, 1022)"><rect class="basic label-container" style="" rx="5" ry="5" x="-31.5" y="-20" width="63" height="40"/><g class="label" style="" transform="translate(-23.5, -12)"><rect/><foreignObject width="47" height="24"><div xmlns="http://www.w3.org/1999/xhtml" style="display: table-cell; white-space: nowrap; line-height: 1.5; max-width: 200px; text-align: center;"><span class="nodeLabel markdown-node-label"><p>Closed</p></span></div></foreignObject></g></g><g class="node  statediagram-state" id="my-svg-state-Approved-9" data-look="classic" transform="translate(710.46484375, 706)"><rect class="basic label-container" style="" rx="5" ry="5" x="-41.7734375" y="-20" width="83.546875" height="40"/><g class="label" style="" transform="translate(-33.7734375, -12)"><rect/><foreignObject width="67.546875" height="24"><div xmlns="http://www.w3.org/1999/xhtml" style="display: table-cell; white-space: nowrap; line-height: 1.5; max-width: 200px; text-align: center;"><span class="nodeLabel markdown-node-label"><p>Approved</p></span></div></foreignObject></g></g><g class="node  statediagram-state" id="my-svg-state-Rejected-8" data-look="classic" transform="translate(512.171875, 706)"><rect class="basic label-container" style="" rx="5" ry="5" x="-39.9453125" y="-20" width="79.890625" height="40"/><g class="label" style="" transform="translate(-31.9453125, -12)"><rect/><foreignObject width="63.890625" height="24"><div xmlns="http://www.w3.org/1999/xhtml" style="display: table-cell; white-space: nowrap; line-height: 1.5; max-width: 200px; text-align: center;"><span class="nodeLabel markdown-node-label"><p>Rejected</p></span></div></foreignObject></g></g><g class="node  statediagram-state" id="my-svg-state-ExecutingAction-14" data-look="classic" transform="translate(710.46484375, 864)"><rect class="basic label-container" style="" rx="5" ry="5" x="-65.625" y="-20" width="131.25" height="40"/><g class="label" style="" transform="translate(-57.625, -12)"><rect/><foreignObject width="115.25" height="24"><div xmlns="http://www.w3.org/1999/xhtml" style="display: table-cell; white-space: nowrap; line-height: 1.5; max-width: 200px; text-align: center;"><span class="nodeLabel markdown-node-label"><p>ExecutingAction</p></span></div></foreignObject></g></g><g class="node statediagram-note" id="my-svg-state-Created----note-12" data-look="classic" transform="translate(173.62109375, 276)"><g class="basic label-container outer-path"><path d="M-85.953125 -39 L85.953125 -39 L85.953125 39 L-85.953125 39" stroke="none" stroke-width="0" fill="#fff5ad" style=""/><path d="M-85.953125 -39 C-42.634171096568316 -39, 0.6847828068633675 -39, 85.953125 -39 M-85.953125 -39 C-48.56792836751849 -39, -11.182731735036981 -39, 85.953125 -39 M85.953125 -39 C85.953125 -21.44666923954662, 85.953125 -3.893338479093238, 85.953125 39 M85.953125 -39 C85.953125 -15.47689601090115, 85.953125 8.0462079781977, 85.953125 39 M85.953125 39 C37.020884921221324 39, -11.911355157557352 39, -85.953125 39 M85.953125 39 C46.61867007325151 39, 7.284215146503016 39, -85.953125 39 M-85.953125 39 C-85.953125 16.419102702195357, -85.953125 -6.161794595609287, -85.953125 -39 M-85.953125 39 C-85.953125 22.78656548458366, -85.953125 6.573130969167323, -85.953125 -39" stroke="#aaaa33" stroke-width="1.3" fill="none" stroke-dasharray="0 0" style=""/></g><g class="label noteLabel" style="" transform="translate(-70.953125, -24)"><rect/><foreignObject width="141.90625" height="48"><div xmlns="http://www.w3.org/1999/xhtml" style="display: table-cell; white-space: nowrap; line-height: 1.5; max-width: 200px; text-align: center;"><span class="nodeLabel markdown-node-label"><p>AssignCase<br />Actor: FraudAnalyst</p></span></div></foreignObject></g></g><g class="node statediagram-note" id="my-svg-state-AwaitingApproval----note-13" data-look="classic" transform="translate(152.640625, 706)"><g class="basic label-container outer-path"><path d="M-109.640625 -39 L109.640625 -39 L109.640625 39 L-109.640625 39" stroke="none" stroke-width="0" fill="#fff5ad" style=""/><path d="M-109.640625 -39 C-34.22644067635014 -39, 41.187743647299726 -39, 109.640625 -39 M-109.640625 -39 C-43.67771964159019 -39, 22.285185716819626 -39, 109.640625 -39 M109.640625 -39 C109.640625 -13.777177700571727, 109.640625 11.445644598856546, 109.640625 39 M109.640625 -39 C109.640625 -12.47253166089751, 109.640625 14.054936678204982, 109.640625 39 M109.640625 39 C33.596000074490306 39, -42.44862485101939 39, -109.640625 39 M109.640625 39 C58.697821912345205 39, 7.75501882469041 39, -109.640625 39 M-109.640625 39 C-109.640625 16.13161397606049, -109.640625 -6.736772047879022, -109.640625 -39 M-109.640625 39 C-109.640625 21.156757476256324, -109.640625 3.313514952512648, -109.640625 -39" stroke="#aaaa33" stroke-width="1.3" fill="none" stroke-dasharray="0 0" style=""/></g><g class="label noteLabel" style="" transform="translate(-94.640625, -24)"><rect/><foreignObject width="189.28125" height="48"><div xmlns="http://www.w3.org/1999/xhtml" style="display: table-cell; white-space: nowrap; line-height: 1.5; max-width: 200px; text-align: center;"><span class="nodeLabel markdown-node-label"><p>ApproveCase / RejectCase<br />Actor: GovernanceOfficer</p></span></div></foreignObject></g></g><g class="node statediagram-note" id="my-svg-state-ExecutingAction----note-14" data-look="classic" transform="translate(932.41015625, 1022)"><g class="basic label-container outer-path"><path d="M-66.3203125 -39 L66.3203125 -39 L66.3203125 39 L-66.3203125 39" stroke="none" stroke-width="0" fill="#fff5ad" style=""/><path d="M-66.3203125 -39 C-17.345763490725886 -39, 31.628785518548227 -39, 66.3203125 -39 M-66.3203125 -39 C-20.792088684345792 -39, 24.736135131308416 -39, 66.3203125 -39 M66.3203125 -39 C66.3203125 -7.81301098958156, 66.3203125 23.37397802083688, 66.3203125 39 M66.3203125 -39 C66.3203125 -21.865154222434995, 66.3203125 -4.730308444869991, 66.3203125 39 M66.3203125 39 C37.02992518357609 39, 7.73953786715218 39, -66.3203125 39 M66.3203125 39 C24.158641182551378 39, -18.003030134897244 39, -66.3203125 39 M-66.3203125 39 C-66.3203125 17.508804612720535, -66.3203125 -3.9823907745589295, -66.3203125 -39 M-66.3203125 39 C-66.3203125 21.692088508290816, -66.3203125 4.384177016581631, -66.3203125 -39" stroke="#aaaa33" stroke-width="1.3" fill="none" stroke-dasharray="0 0" style=""/></g><g class="label noteLabel" style="" transform="translate(-51.3203125, -24)"><rect/><foreignObject width="102.640625" height="48"><div xmlns="http://www.w3.org/1999/xhtml" style="display: table-cell; white-space: nowrap; line-height: 1.5; max-width: 200px; text-align: center;"><span class="nodeLabel markdown-node-label"><p>ExecuteAction<br />Actor: System</p></span></div></foreignObject></g></g></g></g></g><defs><filter id="my-svg-drop-shadow" height="130%" width="130%"><feDropShadow dx="4" dy="4" stdDeviation="0" flood-opacity="0.06" flood-color="#000000"/></filter></defs><defs><filter id="my-svg-drop-shadow-small" height="150%" width="150%"><feDropShadow dx="2" dy="2" stdDeviation="0" flood-opacity="0.06" flood-color="#000000"/></filter></defs></svg>