<svg id="my-svg" width="100%" xmlns="http://www.w3.org/2000/svg" xmlns:xlink="http://www.w3.org/1999/xlink" class="statediagram" style="max-width: 1282.99px; background-color: white;" viewBox="0 0 1282.9921875 1118" role="graphics-document document" aria-roledescription="stateDiagram"><style>#my-svg{font-family:"trebuchet ms",verdana,arial,sans-serif;font-size:16px;fill:#333;}@keyframes edge-animation-frame{from{stroke-dashoffset:0;}}@keyframes dash{to{stroke-dashoffset:0;}}#my-svg .edge-animation-slow{stroke-dasharray:9,5!important;stroke-dashoffset:900;animation:dash 50s linear infinite;stroke-linecap:round;}#my-svg .edge-animation-fast{stroke-dasharray:9,5!important;stroke-dashoffset:900;animation:dash 20s linear infinite;stroke-linecap:round;}#my-svg .error-icon{fill:#552222;}#my-svg .error-text{fill:#552222;stroke:#552222;}#my-svg .edge-thickness-normal{stroke-width:1px;}#my-svg .edge-thickness-thick{stroke-width:3.5px;}#my-svg .edge-pattern-solid{stroke-dasharray:0;}#my-svg .edge-thickness-invisible{stroke-width:0;fill:none;}#my-svg .edge-pattern-dashed{stroke-dasharray:3;}#my-svg .edge-pattern-dotted{stroke-dasharray:2;}#my-svg .marker{fill:#333333;stroke:#333333;}#my-svg .marker.cross{stroke:#333333;}#my-svg svg{font-family:"trebuchet ms",verdana,arial,sans-serif;font-size:16px;}#my-svg p{margin:0;}#my-svg defs [id$="-barbEnd"]{fill:#333333;stroke:#333333;}#my-svg g.stateGroup text{fill:#9370DB;stroke:none;font-size:10px;}#my-svg g.stateGroup text{fill:#333;stroke:none;font-size:10px;}#my-svg g.stateGroup .state-title{font-weight:bolder;fill:#131300;}#my-svg g.stateGroup rect{fill:#ECECFF;stroke:#9370DB;}#my-svg g.stateGroup line{stroke:#333333;stroke-width:1;}#my-svg .transition{stroke:#333333;stroke-width:1;fill:none;}#my-svg .stateGroup .composit{fill:white;border-bottom:1px;}#my-svg .stateGroup .alt-composit{fill:#e0e0e0;border-bottom:1px;}#my-svg .state-note{stroke:#aaaa33;fill:#fff5ad;}#my-svg .state-note text{fill:black;stroke:none;font-size:10px;}#my-svg .stateLabel .box{stroke:none;stroke-width:0;fill:#ECECFF;opacity:0.5;}#my-svg .edgeLabel .label rect{fill:#ECECFF;opacity:0.5;}#my-svg .edgeLabel{background-color:rgba(232,232,232, 0.8);text-align:center;}#my-svg .edgeLabel p{background-color:rgba(232,232,232, 0.8);}#my-svg .edgeLabel rect{opacity:0.5;background-color:rgba(232,232,232, 0.8);fill:rgba(232,232,232, 0.8);}#my-svg .edgeLabel .label text{fill:#333;}#my-svg .label div .edgeLabel{color:#333;}#my-svg .stateLabel text{fill:#131300;font-size:10px;font-weight:bold;}#my-svg .node circle.state-start{fill:#333333;stroke:#333333;}#my-svg .node .fork-join{fill:#333333;stroke:#333333;}#my-svg .node circle.state-end{fill:#9370DB;stroke:white;stroke-width:1.5;}#my-svg .end-state-inner{fill:white;stroke-width:1.5;}#my-svg .node rect{fill:#ECECFF;stroke:#9370DB;stroke-width:1px;}#my-svg .node polygon{fill:#ECECFF;stroke:#9370DB;stroke-width:1px;}#my-svg [id$="-barbEnd"]{fill:#333333;}#my-svg .statediagram-cluster rect{fill:#ECECFF;stroke:#9370DB;stroke-width:1px;}#my-svg .cluster-label,#my-svg .nodeLabel{color:#131300;}#my-svg .statediagram-cluster rect.outer{rx:5px;ry:5px;}#my-svg .statediagram-state .divider{stroke:#9370DB;}#my-svg .statediagram-state .title-state{rx:5px;ry:5px;}#my-svg .statediagram-cluster.statediagram-cluster .inner{fill:white;}#my-svg .statediagram-cluster.statediagram-cluster-alt .inner{fill:#f0f0f0;}#my-svg .statediagram-cluster .inner{rx:0;ry:0;}#my-svg .statediagram-state rect.basic{rx:5px;ry:5px;}#my-svg .statediagram-state rect.divider{stroke-dasharray:10,10;fill:#f0f0f0;}#my-svg .note-edge{stroke-dasharray:5;}#my-svg .statediagram-note rect{fill:#fff5ad;stroke:#aaaa33;stroke-width:1px;rx:0;ry:0;}#my-svg .statediagram-note rect{fill:#fff5ad;stroke:#aaaa33;stroke-width:1px;rx:0;ry:0;}#my-svg .statediagram-note text{fill:black;}#my-svg .statediagram-note .nodeLabel{color:black;}#my-svg .statediagram .edgeLabel{color:red;}#my-svg [id$="-dependencyStart"],#my-svg [id$="-dependencyEnd"]{fill:#333333;stroke:#333333;stroke-width:1;}#my-svg .statediagramTitleText{text-anchor:middle;font-size:18px;fill:#333;}#my-svg [data-look="neo"].statediagram-cluster rect{fill:#ECECFF;stroke:#9370DB;stroke-width:1;}#my-svg [data-look="neo"].statediagram-cluster rect.outer{rx:5px;ry:5px;filter:drop-shadow(1px 2px 2px rgba(185, 185, 185, 1));}#my-svg .node .neo-node{stroke:#9370DB;}#my-svg [data-look="neo"].node rect,#my-svg [data-look="neo"].cluster rect,#my-svg [data-look="neo"].node polygon{stroke:#9370DB;filter:drop-shadow(1px 2px 2px rgba(185, 185, 185, 1));}#my-svg [data-look="neo"].node path{stroke:#9370DB;stroke-width:1px;}#my-svg [data-look="neo"].node .outer-path{filter:drop-shadow(1px 2px 2px rgba(185, 185, 185, 1));}#my-svg [data-look="neo"].node .neo-line path{stroke:#9370DB;filter:none;}#my-svg [data-look="neo"].node circle{stroke:#9370DB;filter:drop-shadow(1px 2px 2px rgba(185, 185, 185, 1));}#my-svg [data-look="neo"].node circle .state-start{fill:#000000;}#my-svg [data-look="neo"].icon-shape .icon{fill:#9370DB;filter:drop-shadow(1px 2px 2px rgba(185, 185, 185, 1));}#my-svg [data-look="neo"].icon-shape .icon-neo path{stroke:#9370DB;filter:drop-shadow(1px 2px 2px rgba(185, 185, 185, 1));}#my-svg :root{--mermaid-font-family:"trebuchet ms",verdana,arial,sans-serif;}</style><g><defs><marker id="my-svg_stateDiagram-barbEnd" refX="19" refY="7" markerWidth="20" markerHeight="14" markerUnits="userSpaceOnUse" orient="auto"><path d="M 19,7 L9,13 L14,7 L9,1 Z"/></marker></defs><g class="root"><g class="clusters"><g class="note-cluster" id="my-svg-state-AwaitingApproval----parent-12"><rect x="8" y="554" width="288.15625" height="128" fill="none"/></g><g class="note-cluster" id="my-svg-state-Approved----parent-13"><rect x="166.15625" y="756" width="300" height="152" fill="none"/></g><g class="note-cluster" id="my-svg-state-ExecutingAction----parent-14"><rect x="996.2421875" y="982" width="278.75" height="128" fill="none"/></g></g><g class="edgePaths"><path d="M812.012,31.125L781.024,38.104C750.036,45.083,688.061,59.042,657.074,70.187C626.086,81.333,626.086,89.667,626.086,93.833L626.086,98" id="my-svg-edge0" class="edge-thickness-normal edge-pattern-solid transition" style="fill:none;;;fill:none" data-edge="true" data-et="edge" data-id="edge0" data-points="W3sieCI6ODEyLjAxMTcxODc1LCJ5IjozMS4xMjQ5ODc3ODA3OTcyNzd9LHsieCI6NjI2LjA4NTkzNzUsInkiOjczfSx7IngiOjYyNi4wODU5Mzc1LCJ5Ijo5OH1d" data-look="classic" marker-end="url(#my-svg_stateDiagram-barbEnd)"/><path d="M626.086,138L626.086,144.167C626.086,150.333,626.086,162.667,626.086,175C626.086,187.333,626.086,199.667,626.086,205.833L626.086,212" id="my-svg-edge1" class="edge-thickness-normal edge-pattern-solid transition" style="fill:none;;;fill:none" data-edge="true" data-et="edge" data-id="edge1" data-points="W3sieCI6NjI2LjA4NTkzNzUsInkiOjEzOH0seyJ4Ijo2MjYuMDg1OTM3NSwieSI6MTc1fSx7IngiOjYyNi4wODU5Mzc1LCJ5IjoyMTJ9XQ==" data-look="classic" marker-end="url(#my-svg_stateDiagram-barbEnd)"/><path d="M626.086,252L626.086,258.167C626.086,264.333,626.086,276.667,626.086,289C626.086,301.333,626.086,313.667,626.086,319.833L626.086,326" id="my-svg-edge2" class="edge-thickness-normal edge-pattern-solid transition" style="fill:none;;;fill:none" data-edge="true" data-et="edge" data-id="edge2" data-points="W3sieCI6NjI2LjA4NTkzNzUsInkiOjI1Mn0seyJ4Ijo2MjYuMDg1OTM3NSwieSI6Mjg5fSx7IngiOjYyNi4wODU5Mzc1LCJ5IjozMjZ9XQ==" data-look="classic" marker-end="url(#my-svg_stateDiagram-barbEnd)"/><path d="M645.806,366L651.887,372.167C657.967,378.333,670.128,390.667,676.209,403C682.289,415.333,682.289,427.667,682.289,433.833L682.289,440" id="my-svg-edge3" class="edge-thickness-normal edge-pattern-solid transition" style="fill:none;;;fill:none" data-edge="true" data-et="edge" data-id="edge3" data-points="W3sieCI6NjQ1LjgwNjMzMjIzNjg0MjEsInkiOjM2Nn0seyJ4Ijo2ODIuMjg5MDYyNSwieSI6NDAzfSx7IngiOjY4Mi4yODkwNjI1LCJ5Ijo0NDB9XQ==" data-look="classic" marker-end="url(#my-svg_stateDiagram-barbEnd)"/><path d="M576.988,366L561.849,372.167C546.711,378.333,516.433,390.667,501.295,406.333C486.156,422,486.156,441,486.156,460C486.156,479,486.156,498,486.156,513.667C486.156,529.333,486.156,541.667,486.156,558.5C486.156,575.333,486.156,596.667,486.156,618C486.156,639.333,486.156,660.667,486.156,677.5C486.156,694.333,486.156,706.667,486.156,719C486.156,731.333,486.156,743.667,486.156,762.5C486.156,781.333,486.156,806.667,486.156,832C486.156,857.333,486.156,882.667,486.156,901.5C486.156,920.333,486.156,932.667,486.156,945C486.156,957.333,486.156,969.667,517.241,984.959C548.326,1000.251,610.495,1018.502,641.579,1027.627L672.664,1036.753" id="my-svg-edge4" class="edge-thickness-normal edge-pattern-solid transition" style="fill:none;;;fill:none" data-edge="true" data-et="edge" data-id="edge4" data-points="W3sieCI6NTc2Ljk4NzgwMTUzNTA4NzcsInkiOjM2Nn0seyJ4Ijo0ODYuMTU2MjUsInkiOjQwM30seyJ4Ijo0ODYuMTU2MjUsInkiOjQ2MH0seyJ4Ijo0ODYuMTU2MjUsInkiOjUxN30seyJ4Ijo0ODYuMTU2MjUsInkiOjU1NH0seyJ4Ijo0ODYuMTU2MjUsInkiOjYxOH0seyJ4Ijo0ODYuMTU2MjUsInkiOjY4Mn0seyJ4Ijo0ODYuMTU2MjUsInkiOjcxOX0seyJ4Ijo0ODYuMTU2MjUsInkiOjc1Nn0seyJ4Ijo0ODYuMTU2MjUsInkiOjgzMn0seyJ4Ijo0ODYuMTU2MjUsInkiOjkwOH0seyJ4Ijo0ODYuMTU2MjUsInkiOjk0NX0seyJ4Ijo0ODYuMTU2MjUsInkiOjk4Mn0seyJ4Ijo2NzIuNjY0MDYyNSwieSI6MTAzNi43NTI2MjQ5Nzc2MDI2fV0=" data-look="classic" marker-end="url(#my-svg_stateDiagram-barbEnd)"/><path d="M666.856,480L662.097,486.167C657.339,492.333,647.822,504.667,643.063,517C638.305,529.333,638.305,541.667,638.305,555.167C638.305,568.667,638.305,583.333,638.305,590.667L638.305,598" id="my-svg-edge5" class="edge-thickness-normal edge-pattern-solid transition" style="fill:none;;;fill:none" data-edge="true" data-et="edge" data-id="edge5" data-points="W3sieCI6NjY2Ljg1NTk0ODQ2NDkxMjMsInkiOjQ4MH0seyJ4Ijo2MzguMzA0Njg3NSwieSI6NTE3fSx7IngiOjYzOC4zMDQ2ODc1LCJ5Ijo1NTR9LHsieCI6NjM4LjMwNDY4NzUsInkiOjU5OH1d" data-look="classic" marker-end="url(#my-svg_stateDiagram-barbEnd)"/><path d="M708.495,480L716.575,486.167C724.656,492.333,740.816,504.667,748.896,517C756.977,529.333,756.977,541.667,763.511,555.167C770.046,568.667,783.116,583.333,789.651,590.667L796.186,598" id="my-svg-edge6" class="edge-thickness-normal edge-pattern-solid transition" style="fill:none;;;fill:none" data-edge="true" data-et="edge" data-id="edge6" data-points="W3sieCI6NzA4LjQ5NTIwMjg1MDg3NzEsInkiOjQ4MH0seyJ4Ijo3NTYuOTc2NTYyNSwieSI6NTE3fSx7IngiOjc1Ni45NzY1NjI1LCJ5Ijo1NTR9LHsieCI6Nzk2LjE4NTU0Njg3NSwieSI6NTk4fV0=" data-look="classic" marker-end="url(#my-svg_stateDiagram-barbEnd)"/><path d="M841.049,598L850.964,590.667C860.879,583.333,880.709,568.667,890.624,555.167C900.539,541.667,900.539,529.333,900.539,513.667C900.539,498,900.539,479,900.539,460C900.539,441,900.539,422,863.736,404.856C826.932,387.713,753.326,372.426,716.522,364.782L679.719,357.139" id="my-svg-edge7" class="edge-thickness-normal edge-pattern-solid transition" style="fill:none;;;fill:none" data-edge="true" data-et="edge" data-id="edge7" data-points="W3sieCI6ODQxLjA0ODgyODEyNSwieSI6NTk4fSx7IngiOjkwMC41MzkwNjI1LCJ5Ijo1NTR9LHsieCI6OTAwLjUzOTA2MjUsInkiOjUxN30seyJ4Ijo5MDAuNTM5MDYyNSwieSI6NDYwfSx7IngiOjkwMC41MzkwNjI1LCJ5Ijo0MDN9LHsieCI6Njc5LjcxODc1LCJ5IjozNTcuMTM4NzcwMjgxODEwNH1d" data-look="classic" marker-end="url(#my-svg_stateDiagram-barbEnd)"/><path d="M774.063,632.634L751.605,640.862C729.147,649.09,684.232,665.545,661.774,679.939C639.316,694.333,639.316,706.667,639.316,719C639.316,731.333,639.316,743.667,639.316,762.5C639.316,781.333,639.316,806.667,639.316,832C639.316,857.333,639.316,882.667,639.316,901.5C639.316,920.333,639.316,932.667,639.316,945C639.316,957.333,639.316,969.667,646.747,983.167C654.177,996.667,669.038,1011.333,676.469,1018.667L683.899,1026" id="my-svg-edge8" class="edge-thickness-normal edge-pattern-solid transition" style="fill:none;;;fill:none" data-edge="true" data-et="edge" data-id="edge8" data-points="W3sieCI6Nzc0LjA2MjUsInkiOjYzMi42MzQzNzc1ODU0NzQzfSx7IngiOjYzOS4zMTY0MDYyNSwieSI6NjgyfSx7IngiOjYzOS4zMTY0MDYyNSwieSI6NzE5fSx7IngiOjYzOS4zMTY0MDYyNSwieSI6NzU2fSx7IngiOjYzOS4zMTY0MDYyNSwieSI6ODMyfSx7IngiOjYzOS4zMTY0MDYyNSwieSI6OTA4fSx7IngiOjYzOS4zMTY0MDYyNSwieSI6OTQ1fSx7IngiOjYzOS4zMTY0MDYyNSwieSI6OTgyfSx7IngiOjY4My44OTkxNjk5MjE4NzUsInkiOjEwMjZ9XQ==" data-look="classic" marker-end="url(#my-svg_stateDiagram-barbEnd)"/><path d="M680.078,637.476L695.994,644.897C711.91,652.318,743.742,667.159,759.658,680.746C775.574,694.333,775.574,706.667,775.574,719C775.574,731.333,775.574,743.667,775.574,759.167C775.574,774.667,775.574,793.333,775.574,802.667L775.574,812" id="my-svg-edge9" class="edge-thickness-normal edge-pattern-solid transition" style="fill:none;;;fill:none" data-edge="true" data-et="edge" data-id="edge9" data-points="W3sieCI6NjgwLjA3ODEyNSwieSI6NjM3LjQ3NjI4MTI2Njg5NjJ9LHsieCI6Nzc1LjU3NDIxODc1LCJ5Ijo2ODJ9LHsieCI6Nzc1LjU3NDIxODc1LCJ5Ijo3MTl9LHsieCI6Nzc1LjU3NDIxODc1LCJ5Ijo3NTZ9LHsieCI6Nzc1LjU3NDIxODc1LCJ5Ijo4MTJ9XQ==" data-look="classic" marker-end="url(#my-svg_stateDiagram-barbEnd)"/><path d="M775.574,852L775.574,861.333C775.574,870.667,775.574,889.333,775.574,904.833C775.574,920.333,775.574,932.667,775.574,945C775.574,957.333,775.574,969.667,767.392,983.167C759.209,996.667,742.845,1011.333,734.662,1018.667L726.48,1026" id="my-svg-edge10" class="edge-thickness-normal edge-pattern-solid transition" style="fill:none;;;fill:none" data-edge="true" data-et="edge" data-id="edge10" data-points="W3sieCI6Nzc1LjU3NDIxODc1LCJ5Ijo4NTJ9LHsieCI6Nzc1LjU3NDIxODc1LCJ5Ijo5MDh9LHsieCI6Nzc1LjU3NDIxODc1LCJ5Ijo5NDV9LHsieCI6Nzc1LjU3NDIxODc1LCJ5Ijo5ODJ9LHsieCI6NzI2LjQ3OTczNjMyODEyNSwieSI6MTAyNn1d" data-look="classic" marker-end="url(#my-svg_stateDiagram-barbEnd)"/><path d="M735.664,1038.59L775.76,1029.159C815.857,1019.727,896.049,1000.863,936.146,985.265C976.242,969.667,976.242,957.333,976.242,945C976.242,932.667,976.242,920.333,976.242,901.5C976.242,882.667,976.242,857.333,976.242,832C976.242,806.667,976.242,781.333,976.242,762.5C976.242,743.667,976.242,731.333,976.242,719C976.242,706.667,976.242,694.333,976.242,677.5C976.242,660.667,976.242,639.333,976.242,618C976.242,596.667,976.242,575.333,976.242,558.5C976.242,541.667,976.242,529.333,976.242,513.667C976.242,498,976.242,479,976.242,460C976.242,441,976.242,422,976.242,403C976.242,384,976.242,365,976.242,346C976.242,327,976.242,308,976.242,289C976.242,270,976.242,251,976.242,232C976.242,213,976.242,194,976.242,175C976.242,156,976.242,137,976.242,120C976.242,103,976.242,88,953.495,73.692C930.749,59.384,885.255,45.768,862.508,38.961L839.762,32.153" id="my-svg-edge11" class="edge-thickness-normal edge-pattern-solid transition" style="fill:none;;;fill:none" data-edge="true" data-et="edge" data-id="edge11" data-points="W3sieCI6NzM1LjY2NDA2MjUsInkiOjEwMzguNTkwMzYzNTIxNTA3fSx7IngiOjk3Ni4yNDIxODc1LCJ5Ijo5ODJ9LHsieCI6OTc2LjI0MjE4NzUsInkiOjk0NX0seyJ4Ijo5NzYuMjQyMTg3NSwieSI6OTA4fSx7IngiOjk3Ni4yNDIxODc1LCJ5Ijo4MzJ9LHsieCI6OTc2LjI0MjE4NzUsInkiOjc1Nn0seyJ4Ijo5NzYuMjQyMTg3NSwieSI6NzE5fSx7IngiOjk3Ni4yNDIxODc1LCJ5Ijo2ODJ9LHsieCI6OTc2LjI0MjE4NzUsInkiOjYxOH0seyJ4Ijo5NzYuMjQyMTg3NSwieSI6NTU0fSx7IngiOjk3Ni4yNDIxODc1LCJ5Ijo1MTd9LHsieCI6OTc2LjI0MjE4NzUsInkiOjQ2MH0seyJ4Ijo5NzYuMjQyMTg3NSwieSI6NDAzfSx7IngiOjk3Ni4yNDIxODc1LCJ5IjozNDZ9LHsieCI6OTc2LjI0MjE4NzUsInkiOjI4OX0seyJ4Ijo5NzYuMjQyMTg3NSwieSI6MjMyfSx7IngiOjk3Ni4yNDIxODc1LCJ5IjoxNzV9LHsieCI6OTc2LjI0MjE4NzUsInkiOjExOH0seyJ4Ijo5NzYuMjQyMTg3NSwieSI6NzN9LHsieCI6ODM5Ljc2MTcxODc1LCJ5IjozMi4xNTI2NTkwNjMxNTc2Mn1d" data-look="classic" marker-end="url(#my-svg_stateDiagram-barbEnd)"/><path d="M612.141,467.541L535.464,475.784C458.786,484.028,305.432,500.514,228.755,514.924C152.078,529.333,152.078,541.667,152.078,552C152.078,562.333,152.078,570.667,152.078,574.833L152.078,579" id="my-svg-AwaitingApproval-AwaitingApproval----note-12" class="edge-thickness-normal edge-pattern-solid transition note-edge" style="fill:none;;;fill:none" data-edge="true" data-et="edge" data-id="AwaitingApproval-AwaitingApproval----note-12" data-points="W3sieCI6NjEyLjE0MDYyNSwieSI6NDY3LjU0MTI2NDUzMjA5OTU1fSx7IngiOjE1Mi4wNzgxMjUsInkiOjUxN30seyJ4IjoxNTIuMDc4MTI1LCJ5Ijo1NTR9LHsieCI6MTUyLjA3ODEyNSwieSI6NTc5fV0=" data-look="classic"/><path d="M596.531,626.299L549.802,635.582C503.073,644.866,409.615,663.433,362.885,678.883C316.156,694.333,316.156,706.667,316.156,719C316.156,731.333,316.156,743.667,316.156,754C316.156,764.333,316.156,772.667,316.156,776.833L316.156,781" id="my-svg-Approved-Approved----note-13" class="edge-thickness-normal edge-pattern-solid transition note-edge" style="fill:none;;;fill:none" data-edge="true" data-et="edge" data-id="Approved-Approved----note-13" data-points="W3sieCI6NTk2LjUzMTI1LCJ5Ijo2MjYuMjk4OTY5MzIyMTc3OH0seyJ4IjozMTYuMTU2MjUsInkiOjY4Mn0seyJ4IjozMTYuMTU2MjUsInkiOjcxOX0seyJ4IjozMTYuMTU2MjUsInkiOjc1Nn0seyJ4IjozMTYuMTU2MjUsInkiOjc4MX1d" data-look="classic"/><path d="M841.199,845.853L890.269,856.21C939.339,866.568,1037.478,887.284,1086.548,903.809C1135.617,920.333,1135.617,932.667,1135.617,945C1135.617,957.333,1135.617,969.667,1135.617,980C1135.617,990.333,1135.617,998.667,1135.617,1002.833L1135.617,1007" id="my-svg-ExecutingAction-ExecutingAction----note-14" class="edge-thickness-normal edge-pattern-solid transition note-edge" style="fill:none;;;fill:none" data-edge="true" data-et="edge" data-id="ExecutingAction-ExecutingAction----note-14" data-points="W3sieCI6ODQxLjE5OTIxODc1LCJ5Ijo4NDUuODUyNTEzMjYzMzkwOH0seyJ4IjoxMTM1LjYxNzE4NzUsInkiOjkwOH0seyJ4IjoxMTM1LjYxNzE4NzUsInkiOjk0NX0seyJ4IjoxMTM1LjYxNzE4NzUsInkiOjk4Mn0seyJ4IjoxMTM1LjYxNzE4NzUsInkiOjEwMDd9XQ==" data-look="classic"/></g><g class="edgeLabels"><g class="edgeLabel"><g class="label" data-id="edge0" transform="translate(0, 0)"><foreignObject width="0" height="0"><div xmlns="http://www.w3.org/1999/xhtml" class="labelBkg" style="display: table-cell; white-space: nowrap; line-height: 1.5; max-width: 200px; text-align: center;"><span class="edgeLabel"></span></div></foreignObject></g></g><g class="edgeLabel" transform="translate(626.0859375, 175)"><g class="label" data-id="edge1" transform="translate(-38.453125, -12)"><foreignObject width="76.90625" height="24"><div xmlns="http://www.w3.org/1999/xhtml" class="labelBkg" style="display: table-cell; white-space: nowrap; line-height: 1.5; max-width: 200px; text-align: center;"><span class="edgeLabel"><p>AssignCase</p></span></div></foreignObject></g></g><g class="edgeLabel" transform="translate(626.0859375, 289)"><g class="label" data-id="edge2" transform="translate(-63.4140625, -12)"><foreignObject width="126.828125" height="24"><div xmlns="http://www.w3.org/1999/xhtml" class="labelBkg" style="display: table-cell; white-space: nowrap; line-height: 1.5; max-width: 200px; text-align: center;"><span class="edgeLabel"><p>StartInvestigation</p></span></div></foreignObject></g></g><g class="edgeLabel" transform="translate(682.2890625, 403)"><g class="label" data-id="edge3" transform="translate(-86.515625, -12)"><foreignObject width="173.03125" height="24"><div xmlns="http://www.w3.org/1999/xhtml" class="labelBkg" style="display: table-cell; white-space: nowrap; line-height: 1.5; max-width: 200px; text-align: center;"><span class="edgeLabel"><p>SubmitRecommendation</p></span></div></foreignObject></g></g><g class="edgeLabel" transform="translate(486.15625, 618)"><g class="label" data-id="edge4" transform="translate(-35.6328125, -12)"><foreignObject width="71.265625" height="24"><div xmlns="http://www.w3.org/1999/xhtml" class="labelBkg" style="display: table-cell; white-space: nowrap; line-height: 1.5; max-width: 200px; text-align: center;"><span class="edgeLabel"><p>CloseCase</p></span></div></foreignObject></g></g><g class="edgeLabel" transform="translate(638.3046875, 517)"><g class="label" data-id="edge5" transform="translate(-45.90625, -12)"><foreignObject width="91.8125" height="24"><div xmlns="http://www.w3.org/1999/xhtml" class="labelBkg" style="display: table-cell; white-space: nowrap; line-height: 1.5; max-width: 200px; text-align: center;"><span class="edgeLabel"><p>ApproveCase</p></span></div></foreignObject></g></g><g class="edgeLabel" transform="translate(756.9765625, 517)"><g class="label" data-id="edge6" transform="translate(-39.71875, -12)"><foreignObject width="79.4375" height="24"><div xmlns="http://www.w3.org/1999/xhtml" class="labelBkg" style="display: table-cell; white-space: nowrap; line-height: 1.5; max-width: 200px; text-align: center;"><span class="edgeLabel"><p>RejectCase</p></span></div></foreignObject></g></g><g class="edgeLabel" transform="translate(900.5390625, 460)"><g class="label" data-id="edge7" transform="translate(-42.7734375, -12)"><foreignObject width="85.546875" height="24"><div xmlns="http://www.w3.org/1999/xhtml" class="labelBkg" style="display: table-cell; white-space: nowrap; line-height: 1.5; max-width: 200px; text-align: center;"><span class="edgeLabel"><p>ReopenCase</p></span></div></foreignObject></g></g><g class="edgeLabel" transform="translate(639.31640625, 832)"><g class="label" data-id="edge8" transform="translate(-35.6328125, -12)"><foreignObject width="71.265625" height="24"><div xmlns="http://www.w3.org/1999/xhtml" class="labelBkg" style="display: table-cell; white-space: nowrap; line-height: 1.5; max-width: 200px; text-align: center;"><span class="edgeLabel"><p>CloseCase</p></span></div></foreignObject></g></g><g class="edgeLabel" transform="translate(775.57421875, 719)"><g class="label" data-id="edge9" transform="translate(-51.3203125, -12)"><foreignObject width="102.640625" height="24"><div xmlns="http://www.w3.org/1999/xhtml" class="labelBkg" style="display: table-cell; white-space: nowrap; line-height: 1.5; max-width: 200px; text-align: center;"><span class="edgeLabel"><p>ExecuteAction</p></span></div></foreignObject></g></g><g class="edgeLabel" transform="translate(775.57421875, 945)"><g class="label" data-id="edge10" transform="translate(-61.6875, -12)"><foreignObject width="123.375" height="24"><div xmlns="http://www.w3.org/1999/xhtml" class="labelBkg" style="display: table-cell; white-space: nowrap; line-height: 1.5; max-width: 200px; text-align: center;"><span class="edgeLabel"><p>ActionCompleted</p></span></div></foreignObject></g></g><g class="edgeLabel"><g class="label" data-id="edge11" transform="translate(0, 0)"><foreignObject width="0" height="0"><div xmlns="http://www.w3.org/1999/xhtml" class="labelBkg" style="display: table-cell; white-space: nowrap; line-height: 1.5; max-width: 200px; text-align: center;"><span class="edgeLabel"></span></div></foreignObject></g></g><g class="edgeLabel"><g class="label" data-id="AwaitingApproval-AwaitingApproval----note-12" transform="translate(0, 0)"><foreignObject width="0" height="0"><div xmlns="http://www.w3.org/1999/xhtml" class="labelBkg" style="display: table-cell; white-space: nowrap; line-height: 1.5; max-width: 200px; text-align: center;"><span class="edgeLabel"></span></div></foreignObject></g></g><g class="edgeLabel"><g class="label" data-id="Approved-Approved----note-13" transform="translate(0, 0)"><foreignObject width="0" height="0"><div xmlns="http://www.w3.org/1999/xhtml" class="labelBkg" style="display: table-cell; white-space: nowrap; line-height: 1.5; max-width: 200px; text-align: center;"><span class="edgeLabel"></span></div></foreignObject></g></g><g class="edgeLabel"><g class="label" data-id="ExecutingAction-ExecutingAction----note-14" transform="translate(0, 0)"><foreignObject width="0" height="0"><div xmlns="http://www.w3.org/1999/xhtml" class="labelBkg" style="display: table-cell; white-space: nowrap; line-height: 1.5; max-width: 200px; text-align: center;"><span class="edgeLabel"></span></div></foreignObject></g></g></g><g class="nodes"><g class="node  statediagram-state" id="my-svg-state-[]-11" data-look="classic" transform="translate(825.88671875, 28)"><rect class="basic label-container" style="" rx="5" ry="5" x="-13.875" y="-20" width="27.75" height="40"/><g class="label" style="" transform="translate(-5.875, -12)"><rect/><foreignObject width="11.75" height="24"><div xmlns="http://www.w3.org/1999/xhtml" style="display: table-cell; white-space: nowrap; line-height: 1.5; max-width: 200px; text-align: center;"><span class="nodeLabel markdown-node-label"><p>[]</p></span></div></foreignObject></g></g><g class="node  statediagram-state" id="my-svg-state-Created-1" data-look="classic" transform="translate(626.0859375, 118)"><rect class="basic label-container" style="" rx="5" ry="5" x="-36.453125" y="-20" width="72.90625" height="40"/><g class="label" style="" transform="translate(-28.453125, -12)"><rect/><foreignObject width="56.90625" height="24"><div xmlns="http://www.w3.org/1999/xhtml" style="display: table-cell; white-space: nowrap; line-height: 1.5; max-width: 200px; text-align: center;"><span class="nodeLabel markdown-node-label"><p>Created</p></span></div></foreignObject></g></g><g class="node  statediagram-state" id="my-svg-state-Assigned-2" data-look="classic" transform="translate(626.0859375, 232)"><rect class="basic label-container" style="" rx="5" ry="5" x="-38.6875" y="-20" width="77.375" height="40"/><g class="label" style="" transform="translate(-30.6875, -12)"><rect/><foreignObject width="61.375" height="24"><div xmlns="http://www.w3.org/1999/xhtml" style="display: table-cell; white-space: nowrap; line-height: 1.5; max-width: 200px; text-align: center;"><span class="nodeLabel markdown-node-label"><p>Assigned</p></span></div></foreignObject></g></g><g class="node  statediagram-state" id="my-svg-state-Investigating-7" data-look="classic" transform="translate(626.0859375, 346)"><rect class="basic label-container" style="" rx="5" ry="5" x="-53.6328125" y="-20" width="107.265625" height="40"/><g class="label" style="" transform="translate(-45.6328125, -12)"><rect/><foreignObject width="91.265625" height="24"><div xmlns="http://www.w3.org/1999/xhtml" style="display: table-cell; white-space: nowrap; line-height: 1.5; max-width: 200px; text-align: center;"><span class="nodeLabel markdown-node-label"><p>Investigating</p></span></div></foreignObject></g></g><g class="node  statediagram-state" id="my-svg-state-AwaitingApproval-12" data-look="classic" transform="translate(682.2890625, 460)"><rect class="basic label-container" style="" rx="5" ry="5" x="-70.1484375" y="-20" width="140.296875" height="40"/><g class="label" style="" transform="translate(-62.1484375, -12)"><rect/><foreignObject width="124.296875" height="24"><div xmlns="http://www.w3.org/1999/xhtml" style="display: table-cell; white-space: nowrap; line-height: 1.5; max-width: 200px; text-align: center;"><span class="nodeLabel markdown-node-label"><p>AwaitingApproval</p></span></div></foreignObject></g></g><g class="node  statediagram-state" id="my-svg-state-Closed-11" data-look="classic" transform="translate(704.1640625, 1046)"><rect class="basic label-container" style="" rx="5" ry="5" x="-31.5" y="-20" width="63" height="40"/><g class="label" style="" transform="translate(-23.5, -12)"><rect/><foreignObject width="47" height="24"><div xmlns="http://www.w3.org/1999/xhtml" style="display: table-cell; white-space: nowrap; line-height: 1.5; max-width: 200px; text-align: center;"><span class="nodeLabel markdown-node-label"><p>Closed</p></span></div></foreignObject></g></g><g class="node  statediagram-state" id="my-svg-state-Approved-13" data-look="classic" transform="translate(638.3046875, 618)"><rect class="basic label-container" style="" rx="5" ry="5" x="-41.7734375" y="-20" width="83.546875" height="40"/><g class="label" style="" transform="translate(-33.7734375, -12)"><rect/><foreignObject width="67.546875" height="24"><div xmlns="http://www.w3.org/1999/xhtml" style="display: table-cell; white-space: nowrap; line-height: 1.5; max-width: 200px; text-align: center;"><span class="nodeLabel markdown-node-label"><p>Approved</p></span></div></foreignObject></g></g><g class="node  statediagram-state" id="my-svg-state-Rejected-8" data-look="classic" transform="translate(814.0078125, 618)"><rect class="basic label-container" style="" rx="5" ry="5" x="-39.9453125" y="-20" width="79.890625" height="40"/><g class="label" style="" transform="translate(-31.9453125, -12)"><rect/><foreignObject width="63.890625" height="24"><div xmlns="http://www.w3.org/1999/xhtml" style="display: table-cell; white-space: nowrap; line-height: 1.5; max-width: 200px; text-align: center;"><span class="nodeLabel markdown-node-label"><p>Rejected</p></span></div></foreignObject></g></g><g class="node  statediagram-state" id="my-svg-state-ExecutingAction-14" data-look="classic" transform="translate(775.57421875, 832)"><rect class="basic label-container" style="" rx="5" ry="5" x="-65.625" y="-20" width="131.25" height="40"/><g class="label" style="" transform="translate(-57.625, -12)"><rect/><foreignObject width="115.25" height="24"><div xmlns="http://www.w3.org/1999/xhtml" style="display: table-cell; white-space: nowrap; line-height: 1.5; max-width: 200px; text-align: center;"><span class="nodeLabel markdown-node-label"><p>ExecutingAction</p></span></div></foreignObject></g></g><g class="node statediagram-note" id="my-svg-state-AwaitingApproval----note-12" data-look="classic" transform="translate(152.078125, 618)"><g class="basic label-container outer-path"><path d="M-109.078125 -39 L109.078125 -39 L109.078125 39 L-109.078125 39" stroke="none" stroke-width="0" fill="#fff5ad" style=""/><path d="M-109.078125 -39 C-43.58915947956949 -39, 21.899806040861023 -39, 109.078125 -39 M-109.078125 -39 C-40.622687173152244 -39, 27.832750653695513 -39, 109.078125 -39 M109.078125 -39 C109.078125 -14.569232649532541, 109.078125 9.861534700934918, 109.078125 39 M109.078125 -39 C109.078125 -9.508342360302574, 109.078125 19.98331527939485, 109.078125 39 M109.078125 39 C50.98874176689044 39, -7.100641466219116 39, -109.078125 39 M109.078125 39 C23.478468002782492 39, -62.121188994435016 39, -109.078125 39 M-109.078125 39 C-109.078125 14.435122026659897, -109.078125 -10.129755946680206, -109.078125 -39 M-109.078125 39 C-109.078125 19.454837945823773, -109.078125 -0.09032410835245486, -109.078125 -39" stroke="#aaaa33" stroke-width="1.3" fill="none" stroke-dasharray="0 0" style=""/></g><g class="label noteLabel" style="" transform="translate(-94.078125, -24)"><rect/><foreignObject width="188.15625" height="48"><div xmlns="http://www.w3.org/1999/xhtml" style="display: table-cell; white-space: nowrap; line-height: 1.5; max-width: 200px; text-align: center;"><span class="nodeLabel markdown-node-label"><p>Policy:<br />EvidenceComplete = TRUE</p></span></div></foreignObject></g></g><g class="node statediagram-note" id="my-svg-state-Approved----note-13" data-look="classic" transform="translate(316.15625, 832)"><g class="basic label-container outer-path"><path d="M-115 -51 L115 -51 L115 51 L-115 51" stroke="none" stroke-width="0" fill="#fff5ad" style=""/><path d="M-115 -51 C-48.81718325888012 -51, 17.365633482239758 -51, 115 -51 M-115 -51 C-57.87212005835714 -51, -0.7442401167142805 -51, 115 -51 M115 -51 C115 -20.94309860635129, 115 9.113802787297423, 115 51 M115 -51 C115 -19.552443424814644, 115 11.895113150370712, 115 51 M115 51 C58.550473649966854 51, 2.1009472999337078 51, -115 51 M115 51 C62.278528048104995 51, 9.55705609620999 51, -115 51 M-115 51 C-115 17.71842779217058, -115 -15.56314441565884, -115 -51 M-115 51 C-115 24.57911721278002, -115 -1.841765574439961, -115 -51" stroke="#aaaa33" stroke-width="1.3" fill="none" stroke-dasharray="0 0" style=""/></g><g class="label noteLabel" style="" transform="translate(-100, -36)"><rect/><foreignObject width="200" height="72"><div xmlns="http://www.w3.org/1999/xhtml" style="display: table; white-space: break-spaces; line-height: 1.5; max-width: 200px; text-align: center; width: 200px;"><span class="nodeLabel markdown-node-label"><p>Policy:<br />GovernanceApproval = TRUE</p></span></div></foreignObject></g></g><g class="node statediagram-note" id="my-svg-state-ExecutingAction----note-14" data-look="classic" transform="translate(1135.6171875, 1046)"><g class="basic label-container outer-path"><path d="M-104.375 -39 L104.375 -39 L104.375 39 L-104.375 39" stroke="none" stroke-width="0" fill="#fff5ad" style=""/><path d="M-104.375 -39 C-24.411801188531285 -39, 55.55139762293743 -39, 104.375 -39 M-104.375 -39 C-30.515182992558266 -39, 43.34463401488347 -39, 104.375 -39 M104.375 -39 C104.375 -15.730426776193404, 104.375 7.5391464476131915, 104.375 39 M104.375 -39 C104.375 -11.16348373286354, 104.375 16.67303253427292, 104.375 39 M104.375 39 C43.19056393635413 39, -17.993872127291738 39, -104.375 39 M104.375 39 C45.96949413143333 39, -12.436011737133342 39, -104.375 39 M-104.375 39 C-104.375 8.80135329428169, -104.375 -21.39729341143662, -104.375 -39 M-104.375 39 C-104.375 8.305556251518492, -104.375 -22.388887496963015, -104.375 -39" stroke="#aaaa33" stroke-width="1.3" fill="none" stroke-dasharray="0 0" style=""/></g><g class="label noteLabel" style="" transform="translate(-89.375, -24)"><rect/><foreignObject width="178.75" height="48"><div xmlns="http://www.w3.org/1999/xhtml" style="display: table-cell; white-space: nowrap; line-height: 1.5; max-width: 200px; text-align: center;"><span class="nodeLabel markdown-node-label"><p>Policy:<br />ActionAuthorized = TRUE</p></span></div></foreignObject></g></g></g></g></g><defs><filter id="my-svg-drop-shadow" height="130%" width="130%"><feDropShadow dx="4" dy="4" stdDeviation="0" flood-opacity="0.06" flood-color="#000000"/></filter></defs><defs><filter id="my-svg-drop-shadow-small" height="150%" width="150%"><feDropShadow dx="2" dy="2" stdDeviation="0" flood-opacity="0.06" flood-color="#000000"/></filter></defs></svg>